<?xml version="1.0" encoding="UTF-8"?>
<svg id="Layer_1" data-name="Layer 1" xmlns="http://www.w3.org/2000/svg" viewBox="0 0 1920 1080">
  <defs>
    <style>
      .cls-1 {
        fill: #0d1738;
      }
    </style>
  </defs>
  <path class="cls-1" d="M879.3,203v-13.86h.78v14.14c.34,.32,1.13,.31,1.13,.31v-14.46h.78v14.53c7.91,.82,11.15-5.84,11.17-8.52l1.84,.03v-1.52h-9.84v1.44l6.71-.03c-1.05,7.56-8.67,7.53-8.67,7.53l.03-13.33h9.48v-1.44h-16.77v-1.05h13.42v-1.49h-9.54v-.88h3.37v-2.39c-16.25,.27-16.27,23.69-.03,24v-1.11c-11.48-.92-11.11-10.87-11.11-10.87h1.06c-.06,5.32,4.23,7.96,4.22,7.94v-12.82h.83v13.37c.42,.48,1.12,.51,1.12,.51,0,0,0-.03,0-.03Z"/>
</svg>