<?xml version="1.0" encoding="UTF-8"?>
<svg xmlns="http://www.w3.org/2000/svg" xmlns:xlink="http://www.w3.org/1999/xlink" width="36px" height="42px" viewBox="0 0 36 41" version="1.1">
<g id="surface1">
<path style=" stroke:none;fill-rule:nonzero;fill:rgb(5.098039%,9.019608%,21.960784%);fill-opacity:1;" d="M 12.632812 31.535156 L 12.632812 10.734375 L 13.796875 10.734375 L 13.796875 31.960938 C 14.308594 32.433594 15.484375 32.429688 15.484375 32.429688 L 15.484375 10.734375 L 16.648438 10.734375 C 16.648438 10.734375 16.648438 24.460938 16.648438 24.460938 L 16.648438 32.539062 C 23.679688 33.640625 28.472656 28.890625 28.472656 28.890625 C 33.175781 24.980469 33.269531 19.746094 33.269531 19.746094 L 36 19.789062 L 36 17.503906 L 21.351562 17.503906 L 21.351562 19.65625 L 31.339844 19.613281 C 29.773438 30.957031 18.4375 30.914062 18.4375 30.914062 L 18.484375 10.910156 L 32.59375 10.910156 L 32.59375 8.753906 L 7.640625 8.753906 L 7.640625 7.171875 L 27.625 7.171875 L 27.625 4.929688 L 13.421875 4.929688 L 13.421875 3.609375 L 18.4375 3.609375 L 18.4375 0.0234375 C 8.355469 -0.015625 0.0351562 8.097656 0 17.972656 C -0.0351562 27.875 8.277344 36.054688 18.390625 36.042969 L 18.390625 34.375 C 1.296875 32.996094 1.859375 18.0625 1.859375 18.0625 L 3.4375 18.0625 L 3.4375 18.121094 C 3.40625 26.152344 9.722656 29.972656 9.722656 29.972656 L 9.722656 10.734375 L 10.960938 10.734375 L 10.960938 30.800781 C 11.585938 31.527344 12.632812 31.570312 12.632812 31.570312 L 12.632812 31.535156 "/>
</g>
</svg>
